<svg xmlns="http://www.w3.org/2000/svg" xmlns:xlink="http://www.w3.org/1999/xlink" viewBox="0 0 390.35 301.06"><defs><style>.cls-1{fill:url(#radial-gradient);}.cls-2{fill:#fff;}.cls-3{fill:url(#radial-gradient-2);}.cls-4{fill:url(#radial-gradient-3);}.cls-5{fill:url(#radial-gradient-4);}</style><radialGradient id="radial-gradient" cx="187.2" cy="168" r="261.09" gradientUnits="userSpaceOnUse"><stop offset="0" stop-color="#fff"/><stop offset="0.39" stop-color="#fdfdfd"/><stop offset="0.57" stop-color="#f5f5f5"/><stop offset="0.71" stop-color="#e8e8e8"/><stop offset="0.83" stop-color="#d6d6d6"/><stop offset="0.93" stop-color="#bfbfbf"/><stop offset="1" stop-color="#aaa"/></radialGradient><radialGradient id="radial-gradient-2" cx="211.95" cy="16.5" r="35.15" gradientUnits="userSpaceOnUse"><stop offset="0" stop-color="#fff"/><stop offset="0.16" stop-color="#f6f6f6"/><stop offset="0.41" stop-color="#ddd"/><stop offset="0.74" stop-color="#b5b5b5"/><stop offset="0.94" stop-color="#999"/></radialGradient><radialGradient id="radial-gradient-3" cx="374.27" cy="252.29" fy="289.674738108385" r="37.4" gradientUnits="userSpaceOnUse"><stop offset="0" stop-color="#fff"/><stop offset="0.18" stop-color="#f7f7f7"/><stop offset="0.46" stop-color="#e1e1e1"/><stop offset="0.8" stop-color="#bdbdbd"/><stop offset="0.96" stop-color="#aaa"/></radialGradient><radialGradient id="radial-gradient-4" cx="99.05" cy="291.79" r="9.24" gradientUnits="userSpaceOnUse"><stop offset="0" stop-color="#fff"/><stop offset="0.24" stop-color="#eee"/><stop offset="0.72" stop-color="#c1c1c1"/><stop offset="0.95" stop-color="#aaa"/></radialGradient></defs><title>Asset 4</title><g id="Layer_2" data-name="Layer 2"><g id="Layer_1-2" data-name="Layer 1"><path class="cls-1" d="M64.27,84.26c10.2,1.68,16,3.1,22,3.48,4.72.31,8-1,7.39-7.64-1.57-17.42,4.69-21.7,19.71-13.74,4.61,2.44,8.94,5,13.71,2.24,6.78-3.9.9-8.65,0-12.88-1.6-7.18-1.28-13.61,6.94-15.85,7.88-2.14,15.45.56,16.53,9,1.88,14.62,9.63,15.12,20.61,11,10.8-4,24.33,1,33-10.59,3-4,5,0,7,2.76,9.14,12.77,19.57,15,34,7,7.84-4.34,15.66-6,23-.14,6.83,5.44,5.49,12.35,1.45,19.2-2.31,3.93-1.82,8.57,3.11,8.86,26.58,1.58,28.24,24.2,34.74,41.77,2.84,7.68,6.22,11.19,13.54,10.83,6.34-.3,13.4,5.77,18.31-5.8,5.71-13.42,17.68-9.94,27.95-3.75,6.4,3.86,10.16,9.47,4.22,16.16-7.9,8.9-19.93,12.27-27.53,3.66-10.19-11.52-16-2.38-23.35,1.09-10.64,5-5,12-2.23,19.19,2.94,7.58-1.71,13.38-6.48,19.1-17,20.32-11.79,36.12,12.39,37.27,8.45.41,18.1,4.84,17.91,13.72-.21,10.29-1.29,22.45-11.67,29.28-7.52,4.94-14.61,4.72-18.38-5.19-1.56-4.07-2-9-4.56-12.19-7.7-9.57-21.63-7.3-25.48,4.43-6.29,19.14-20.5,24.09-39,23.15,1.5,5.48,8.12,10.61.63,15.51-2.87,1.88-6.85,2.48-9.22-.08-7.11-7.67,4.55-10.07,5.68-18-18.85,5.05-37.19-.83-55.25,3.8-4.7,1.21-8.6,2.4-12.42,6.57-8.94,9.75-18,7.15-20.75-5.47-2.19-10.21-4-17.24-14-5-2.61,3.23-6.91,3-10.63.94-4.12-2.33-4-5.74-2.85-9.89,3.54-12.51-5.32-18-14.45-20.5-6.46-1.8-7.16-5.35-10.22-9.91-10.36-15.41-15.53-37.27-41.44-36-11.82.56-22.44-1.58-26.4,14.21-2.22,8.85-20.62,12.15-28.22,6.57C1.36,220.86-1,219,.42,215.72c2.85-6.58,5.7-14.24,13.56-15.22,13.43-1.67,26.26-5.89,39.47-8.09,13-2.16,22.83-12.11,22.1-24.86C75,156.89,71.94,149.68,58.92,151c-8.62.91-16.52-3.47-15.23-12.68C45,129.43,53.81,128,62,129.26c4.9.78,10.91,8,14.26,1,3.51-7.28,7.37-16.05,1.12-24.73C73.31,100,70.05,93.75,64.27,84.26Z"/><path class="cls-2" d="M54.37,76.18c-1.31,8.26-6.26,12.88-14.39,12-9.88-1.07-17.88-6-18.45-17-.46-9,6.62-12.5,14-11.91C45.41,60.06,52.65,65.45,54.37,76.18Z"/><path class="cls-3" d="M224.88,13c-1.58,12.11-4.76,20.17-14.94,20-8.88-.18-12.34-7.38-10.39-15.2s2.74-19.17,15-17.65C222.86,1.16,224.9,8.66,224.88,13Z"/><path class="cls-4" d="M379.67,264c-8.14-2.45-19-2.82-21.3-14.94-1.22-6.42,4.06-9.17,9.09-8.43,9.65,1.42,19.64,4.43,22.61,15.13C391.65,261.52,386.27,263.93,379.67,264Z"/><path class="cls-5" d="M108.26,292.42c-.32,5.07-2.51,8.84-7.76,8.63-6.29-.24-9.64-4.64-10.54-10.52-.83-5.5,2.36-8.14,7.58-8C103.91,282.68,107.26,286.42,108.26,292.42Z"/></g></g></svg>