<svg xmlns="http://www.w3.org/2000/svg" xmlns:xlink="http://www.w3.org/1999/xlink" viewBox="0 0 456 68"><defs><style>.cls-1{fill:url(#linear-gradient);}.cls-2{fill:url(#linear-gradient-2);}</style><linearGradient id="linear-gradient" x1="563.19" y1="100.5" x2="-121.12" y2="-30.85" gradientUnits="userSpaceOnUse"><stop offset="0" stop-color="#999"/><stop offset="0.19" stop-color="#959595"/><stop offset="0.39" stop-color="#888"/><stop offset="0.6" stop-color="#737373"/><stop offset="0.8" stop-color="#565656"/><stop offset="1" stop-color="#333"/></linearGradient><linearGradient id="linear-gradient-2" x1="228" y1="24.32" x2="228" y2="66" gradientUnits="userSpaceOnUse"><stop offset="0" stop-color="#666"/><stop offset="0.19" stop-color="#696969"/><stop offset="0.32" stop-color="#727272"/><stop offset="0.43" stop-color="#818181"/><stop offset="0.53" stop-color="#979797"/><stop offset="0.54" stop-color="#999"/><stop offset="0.56" stop-color="#959595"/><stop offset="0.63" stop-color="#898989"/><stop offset="0.74" stop-color="#828282"/><stop offset="1" stop-color="gray"/></linearGradient></defs><title>button2</title><g id="Layer_2" data-name="Layer 2"><g id="Layer_1-2" data-name="Layer 1"><rect class="cls-1" y="4.32" width="456" height="63.68" rx="1.99" ry="1.99"/><rect class="cls-2" width="456" height="63.68" rx="0.99" ry="0.99"/><path d="M98.67,24.18h3.61V37.32h7.11v3H98.67Z"/><path d="M114.36,35.14c0,1.19,0,3.19,2.13,3.19a6.43,6.43,0,0,0,3.11-.86l.33,2.33a9.93,9.93,0,0,1-3.7.77c-1.43,0-3.79-.31-4.49-3a14.1,14.1,0,0,1-.29-2.33c0-2,0-4,.8-5.26a3.94,3.94,0,0,1,3.56-1.65A3.65,3.65,0,0,1,119.18,30c.7,1,.7,2.13.7,5.15Zm3-1.74c0-1.76,0-3.1-1.56-3.1s-1.43,1.62-1.41,3.1Z"/><path d="M121.79,28.67h1.74V24.44h3.06v4.23h2.24v2.24h-2.24V37c0,.38,0,1,1.54,1a7.46,7.46,0,0,0,.86-.06v2.4a13.51,13.51,0,0,1-1.85.17c-1.32,0-3.61-.17-3.61-3.19V30.91h-1.74Z"/><path d="M131.32,27.48v-3.3h3.41v3.7l-1.85,3.58H131.3l1.49-4Z"/><path d="M142.45,31.46a3.78,3.78,0,0,0-2.26-.94c-.73,0-1.19.33-1.19.9s.66.95,1.56,1.34c1.65.75,3.56,1.67,3.56,4.16a3.74,3.74,0,0,1-4,3.72,5.77,5.77,0,0,1-3.91-1.45l1.38-2.12a3.35,3.35,0,0,0,2.47,1.32,1.07,1.07,0,0,0,1.21-1c0-.66-.46-.86-1.39-1.3-2.55-1.19-3.65-2.27-3.65-4.09a3.43,3.43,0,0,1,1.65-3,4.12,4.12,0,0,1,2.35-.57,5.88,5.88,0,0,1,3.5,1.19Z"/><path d="M154.6,41.14a2.23,2.23,0,0,0,1.87,1.08,2,2,0,0,0,1.8-1,3.42,3.42,0,0,0,.18-1.34V38.13h-.11a3.57,3.57,0,0,1-3.15,1.67A2.81,2.81,0,0,1,152.64,38a6.18,6.18,0,0,1-.24-2V32.74c0-1.12,0-4.47,2.94-4.47a3.07,3.07,0,0,1,2.18.86,4.21,4.21,0,0,1,1,1.37h.08v-2h2.91v9.91c0,2.22,0,5.74-4.86,5.74-2.64,0-3.72-1.17-4-1.87Zm3.85-9.1a2.61,2.61,0,0,0-1.65-.75,1.08,1.08,0,0,0-1.15.77,9.6,9.6,0,0,0-.22,2,14,14,0,0,0,.22,2.49,1.16,1.16,0,0,0,1.15.83,2.34,2.34,0,0,0,1.65-.83Z"/><path d="M167.2,35.14c0,1.19,0,3.19,2.14,3.19a6.42,6.42,0,0,0,3.1-.86l.33,2.33a9.93,9.93,0,0,1-3.7.77c-1.43,0-3.78-.31-4.49-3a13.71,13.71,0,0,1-.28-2.33c0-2,0-4,.79-5.26a3.94,3.94,0,0,1,3.56-1.65A3.63,3.63,0,0,1,172,30c.7,1,.7,2.13.7,5.15Zm3-1.74c0-1.76,0-3.1-1.56-3.1s-1.43,1.62-1.41,3.1Z"/><path d="M174.64,28.67h1.74V24.44h3.05v4.23h2.25v2.24h-2.25V37c0,.38,0,1,1.54,1a7.46,7.46,0,0,0,.86-.06v2.4a13.27,13.27,0,0,1-1.85.17c-1.32,0-3.6-.17-3.6-3.19V30.91h-1.74Z"/><path d="M189.24,28.67H191V24.44H194v4.23h2.25v2.24H194V37c0,.38,0,1,1.54,1a7.46,7.46,0,0,0,.86-.06v2.4a13.38,13.38,0,0,1-1.85.17c-1.32,0-3.61-.17-3.61-3.19V30.91h-1.74Z"/><path d="M199,24.18h3.1v4.73l0,1.59h.13a3.58,3.58,0,0,1,3.23-2.12,2.63,2.63,0,0,1,2.27,1.15,4.14,4.14,0,0,1,.53,2.42v8.38h-3.08v-7.5c0-.71,0-1.74-1.06-1.74-.72,0-1.12.37-2,1.14v8.1H199Z"/><path d="M213.6,35.14c0,1.19,0,3.19,2.13,3.19a6.43,6.43,0,0,0,3.11-.86l.33,2.33a9.93,9.93,0,0,1-3.7.77c-1.43,0-3.79-.31-4.49-3a14.1,14.1,0,0,1-.29-2.33c0-2,0-4,.8-5.26a3.94,3.94,0,0,1,3.56-1.65A3.65,3.65,0,0,1,218.42,30c.7,1,.7,2.13.7,5.15Zm3-1.74c0-1.76,0-3.1-1.56-3.1s-1.43,1.62-1.41,3.1Z"/><path d="M228.84,24.18h3.39l4.16,7.55c.18.33.4.77.55,1.1.07.13.29.72.35.83h.11L237.32,32c-.07-1.11-.07-1.24-.07-1.85v-6h3.26V40.33H237.6l-4.29-7.83a25.33,25.33,0,0,1-1.21-2.67H232c0,.47.11,2.51.11,2.93v7.57h-3.26Z"/><path d="M248.6,28.32c1.3,0,3,.11,4,1.78.57.94.72,2.27.72,4.36,0,2.39,0,3.76-1.25,4.95a4,4,0,0,1-3.19,1.1A6.18,6.18,0,0,1,246.2,40c-2-1.1-2.07-3-2.07-5.85C244.13,32,244.13,28.32,248.6,28.32Zm-1.34,7a12.53,12.53,0,0,0,.15,1.87,1.27,1.27,0,0,0,1.34,1.06c1.48,0,1.48-1,1.48-4.18,0-1.83,0-3.37-1.45-3.37s-1.52,1.43-1.52,2.33Z"/><path d="M256.28,24.18h3.1V30.1h.07c1.47-1.74,2.55-1.76,3.12-1.76,2.77,0,2.95,2.59,2.95,4.4l0,1.78a25.28,25.28,0,0,1-.15,3.35,2.91,2.91,0,0,1-3,2.64,3.52,3.52,0,0,1-3.08-2.07h-.13v1.89h-2.9Zm3.1,12.7a2.39,2.39,0,0,0,1.74.9c1.23,0,1.27-1.08,1.27-3.43,0-2.64,0-3.57-1.21-3.57-.57,0-.9.18-1.8.88Z"/><path d="M271,35.14c0,1.19,0,3.19,2.13,3.19a6.37,6.37,0,0,0,3.1-.86l.33,2.33a9.84,9.84,0,0,1-3.69.77c-1.43,0-3.79-.31-4.49-3a14.1,14.1,0,0,1-.29-2.33c0-2,0-4,.79-5.26a4,4,0,0,1,3.57-1.65A3.63,3.63,0,0,1,275.81,30c.71,1,.71,2.13.71,5.15Zm3-1.74c0-1.76,0-3.1-1.57-3.1S271,31.92,271,33.4Z"/><path d="M279.6,24.18h3.1V40.33h-3.1Z"/><path d="M292.34,24.18h5.32c2.38,0,3.65.51,4.51,1.28a4.85,4.85,0,0,1,1.48,3.8,4.59,4.59,0,0,1-2.12,4.14,7.29,7.29,0,0,1-3.69.81l-1.94.07v6h-3.56Zm3.56,7.39a9.07,9.07,0,0,0,2.75-.17,2.18,2.18,0,0,0,1.3-2.25c0-1.56-.59-1.89-1.08-2.09s-.83-.22-3-.22Z"/><path d="M306.2,28.67h2.94v2.64h.09c1.1-2.55,2.36-2.91,3.48-2.95v4a4.27,4.27,0,0,0-3.37,1v6.89H306.2Z"/><path d="M318.05,26.73h-3V24.09h3Zm-3,1.94h3V40.33h-3Z"/><path d="M320.41,38.2,325,30.93h-4.37V28.67h7.85V30.8L324,38h4.58v2.31h-8.14Z"/><path d="M333.28,35.14c0,1.19,0,3.19,2.13,3.19a6.37,6.37,0,0,0,3.1-.86l.33,2.33a9.84,9.84,0,0,1-3.69.77c-1.43,0-3.79-.31-4.49-3a14.1,14.1,0,0,1-.29-2.33c0-2,0-4,.8-5.26a3.93,3.93,0,0,1,3.56-1.65A3.66,3.66,0,0,1,338.1,30c.7,1,.7,2.13.7,5.15Zm3-1.74c0-1.76,0-3.1-1.56-3.1s-1.43,1.62-1.41,3.1Z"/><path d="M343.51,34.48l-.66-10.3h3.58l-.59,10.3Zm-.49,2.4h3.37v3.45H343Z"/></g></g></svg>